<?xml version="1.0" encoding="UTF-8"?>
<svg width="508px" height="276px" viewBox="0 0 508 276" version="1.1" xmlns="http://www.w3.org/2000/svg" xmlns:xlink="http://www.w3.org/1999/xlink">
    <!-- Generator: Sketch 49.1 (51147) - http://www.bohemiancoding.com/sketch -->
    <title>assets/images/logo</title>
    <desc>Created with Sketch.</desc>
    <defs></defs>
    <g id="assets/images/logo" stroke="none" stroke-width="1" fill="none" fill-rule="evenodd">
        <path d="M77.368,52.016 L76.36,48.344 C70.528,48.92 64.048,49.424 60.232,49.928 C57.568,54.824 57.352,55.472 55.048,59.576 C53.68,61.952 52.312,64.256 50.08,64.256 C47.128,64.256 42.52,60.08 42.52,56.984 C42.52,54.968 44.608,51.656 45.256,50.576 C53.896,36.896 56.128,32.792 60.592,26.528 L64.336,21.272 C66.712,17.888 67.288,17.6 67.432,17.528 C69.16,14.936 73.48,14.936 74.344,14.936 C75.064,14.936 80.68,14.432 82.336,18.464 C84.712,26.528 85.792,30.272 87.952,37.256 C95.296,37.04 96.592,38.984 96.376,41.216 C96.16,42.8 95.224,44.816 90.688,46.256 L90.904,46.832 C91.768,49.712 93.352,55.4 94.72,58.784 C96.736,61.16 97.024,62.528 97.096,64.688 C97.096,67.496 94.072,69.44 89.608,69.44 C81.256,69.44 78.736,57.056 77.368,52.016 Z M71.752,29.912 C71.032,31.064 68.944,34.592 66.568,38.768 L73.912,38.264 C73.264,35.456 72.472,32.648 71.752,29.912 Z M104.512,57.272 C104.44,56.192 104.368,54.968 104.368,53.528 C104.368,49.928 104.656,45.464 105.016,41.36 C105.376,37.256 105.448,37.04 105.808,34.16 C106.6,28.184 107.176,24.224 107.464,22.424 C107.824,20.408 108.4,18.824 109.768,18.032 C110.416,17.528 111.64,16.88 113.944,16.88 C119.848,16.88 137.632,21.704 137.632,32.576 C137.632,41.576 125.32,48.704 117.976,52.16 L117.976,53.816 C117.976,59.288 118.84,61.376 118.84,63.536 C118.84,67.352 116.176,68.792 113.368,68.792 C107.032,68.792 104.944,61.664 104.512,57.272 Z M120.28,30.416 C119.848,32.864 119.488,35.456 119.128,38.12 C121,36.968 122.44,35.384 122.44,33.008 C122.44,31.856 121.504,30.992 120.28,30.416 Z M144.184,57.848 C144.184,57.416 144.4,54.032 144.616,53.024 C146.848,43.016 149.08,30.128 149.584,20.12 C149.8,17.456 151.816,17.024 153.184,17.024 C159.232,17.024 164.128,21.776 164.128,27.824 C164.128,33.368 161.824,46.328 160.672,53.168 C161.68,53.312 166.864,53.528 167.8,53.6 C169.168,53.672 180.04,54.248 181.408,54.392 C183.64,54.392 186.304,55.904 186.304,59.864 C186.304,64.616 185.296,64.832 182.632,65.48 C177.232,66.776 167.152,67.352 160.96,67.496 C153.328,67.496 143.464,66.92 144.184,57.848 Z M190.84,57.272 C190.84,53.096 191.776,46.832 192.28,42.368 L193.216,35.168 C193.504,32.936 194.656,24.584 194.872,23.432 C195.376,20.552 196.384,18.536 199.264,18.536 C202.72,18.536 209.992,21.416 210.136,26.6 C208.408,34.304 206.536,47.192 205.312,54.896 C204.808,57.776 203.944,63.32 203.944,63.32 C203.656,65.696 200.848,66.344 198.904,66.344 C193.648,66.344 191.2,61.736 190.84,57.272 Z M216.184,59.216 C216.112,55.184 216.616,49.136 217.408,44.384 L218.632,37.184 L221.224,21.848 C221.656,19.4 222.088,16.952 225.04,16.952 C228.64,16.952 236.776,20.624 235.624,26.24 L235.192,28.256 L252.184,23.144 C254.704,22.352 258.088,21.848 260.896,21.848 C265.36,21.848 270.112,23.072 270.4,26.528 C270.616,29.48 267.304,31.424 263.848,32.792 L237.856,43.088 L248.656,54.536 C250.168,56.048 250.96,58.064 250.96,59.72 C250.96,61.16 250.384,62.312 249.232,62.96 C248.44,63.392 247.288,63.608 246.208,63.608 C244.336,63.608 242.968,62.96 241.96,62.24 C241.96,62.24 234.328,56.048 230.368,52.88 L229.72,56.912 C228.856,62.096 228.352,65.336 228.352,65.336 C228.064,67.712 225.256,68.36 223.312,68.36 C218.056,68.36 216.544,63.68 216.184,59.216 Z M306.328,52.016 L305.32,48.344 C299.488,48.92 293.008,49.424 289.192,49.928 C286.528,54.824 286.312,55.472 284.008,59.576 C282.64,61.952 281.272,64.256 279.04,64.256 C276.088,64.256 271.48,60.08 271.48,56.984 C271.48,54.968 273.568,51.656 274.216,50.576 C282.856,36.896 285.088,32.792 289.552,26.528 L293.296,21.272 C295.672,17.888 296.248,17.6 296.392,17.528 C298.12,14.936 302.44,14.936 303.304,14.936 C304.024,14.936 309.64,14.432 311.296,18.464 C313.672,26.528 314.752,30.272 316.912,37.256 C324.256,37.04 325.552,38.984 325.336,41.216 C325.12,42.8 324.184,44.816 319.648,46.256 L319.864,46.832 C320.728,49.712 322.312,55.4 323.68,58.784 C325.696,61.16 325.984,62.528 326.056,64.688 C326.056,67.496 323.032,69.44 318.568,69.44 C310.216,69.44 307.696,57.056 306.328,52.016 Z M312.664,8.24 C311.584,8.816 307.624,10.688 301.36,13.64 C301,13.784 300.568,13.928 300.28,13.928 C299.272,13.928 297.616,12.776 296.68,10.76 C294.736,6.656 301.144,2.624 307.48,-0.904 C309.28,-1.912 311.944,-3.208 314.104,-3.208 C316.624,-3.208 318.28,-1.336 318.28,0.896 C318.28,2.984 316.768,6.08 312.664,8.24 Z M300.712,29.912 C299.992,31.064 297.904,34.592 295.528,38.768 L302.872,38.264 C302.224,35.456 301.432,32.648 300.712,29.912 Z M333.12,48.704 C333.12,35.384 347.952,22.784 355.152,19.112 C356.448,18.464 357.888,17.816 359.76,17.816 C360.984,17.816 362.424,18.104 364.152,18.824 C368.04,20.48 370.2,23 370.2,26.456 C370.2,28.976 369.048,31.568 365.664,31.568 C364.656,31.568 363.504,31.352 362.28,31.352 C361.272,31.352 360.192,31.496 359.184,32.144 C355.944,34.088 347.52,43.52 347.52,51.728 C347.52,54.968 348.816,56.912 352.632,56.912 C357.384,56.912 360.264,53.888 365.664,53.888 C370.128,53.888 370.776,55.976 370.776,59 C370.776,60.8 370.56,62.888 367.968,64.616 C364.44,66.992 358.176,68.072 354.072,68.072 C342.552,68.072 333.12,59.36 333.12,48.704 Z M382.432,57.272 C382.432,53.096 383.368,46.832 383.872,42.368 L384.808,35.168 C385.096,32.936 386.248,24.584 386.464,23.432 C386.968,20.552 387.976,18.536 390.856,18.536 C394.312,18.536 401.584,21.416 401.728,26.6 C400,34.304 398.128,47.192 396.904,54.896 C396.4,57.776 395.536,63.32 395.536,63.32 C395.248,65.696 392.44,66.344 390.496,66.344 C385.24,66.344 382.792,61.736 382.432,57.272 Z M442.696,52.016 L441.688,48.344 C435.856,48.92 429.376,49.424 425.56,49.928 C422.896,54.824 422.68,55.472 420.376,59.576 C419.008,61.952 417.64,64.256 415.408,64.256 C412.456,64.256 407.848,60.08 407.848,56.984 C407.848,54.968 409.936,51.656 410.584,50.576 C419.224,36.896 421.456,32.792 425.92,26.528 L429.664,21.272 C432.04,17.888 432.616,17.6 432.76,17.528 C434.488,14.936 438.808,14.936 439.672,14.936 C440.392,14.936 446.008,14.432 447.664,18.464 C450.04,26.528 451.12,30.272 453.28,37.256 C460.624,37.04 461.92,38.984 461.704,41.216 C461.488,42.8 460.552,44.816 456.016,46.256 L456.232,46.832 C457.096,49.712 458.68,55.4 460.048,58.784 C462.064,61.16 462.352,62.528 462.424,64.688 C462.424,67.496 459.4,69.44 454.936,69.44 C446.584,69.44 444.064,57.056 442.696,52.016 Z M437.08,29.912 C436.36,31.064 434.272,34.592 431.896,38.768 L439.24,38.264 C438.592,35.456 437.8,32.648 437.08,29.912 Z" id="Aplikácia" fill="#FFFFFF"></path>
        <g id="logo-za-slusne-slovensko" transform="translate(0.000000, 89.000000)" fill="#FFFFFF">
            <path d="M10.1405385,142.349329 C10.1405385,137.914997 14.1029193,134.76 19.4430463,134.76 C24.1805663,134.76 26.8506298,136.550652 29.0043525,139.791077 C31.8465295,144.13998 38.9098859,140.473249 36.3256699,135.186306 C33.82772,129.984373 28.056681,126.658937 19.4430463,126.658937 C8.93448722,126.658937 1.52690371,133.139788 1.52690371,142.349329 C1.52690371,163.412093 27.6261877,157.527987 27.6261877,170.660545 C27.6261877,175.094458 23.6638068,178.249873 18.3232612,178.249873 C13.4136276,178.249873 9.88215874,175.691621 8.33188037,171.769023 C6.35068993,166.822957 -1.14315974,168.613608 0.148738902,174.412285 C1.87154961,181.916604 9.19286695,186.350936 18.3232612,186.350936 C29.0901999,186.350936 36.2398225,179.272923 36.2398225,170.660545 C36.2398225,150.024087 10.1405385,156.334498 10.1405385,142.349329 Z M63.4572165,131.775442 C63.4572165,129.131761 61.5622922,127.511549 59.1506085,127.511549 C56.7389248,127.511549 54.8435817,129.131761 54.8435817,131.775442 L54.8435817,181.234431 C54.8435817,183.877694 56.7389248,185.497906 59.1506085,185.497906 L86.1108791,185.497906 C88.7809425,185.497906 90.4179058,183.621827 90.4179058,181.234431 C90.4179058,178.846618 88.7809425,176.970538 86.1108791,176.970538 L63.4572165,176.970538 L63.4572165,131.775442 Z M97.3074736,156.504937 C97.3074736,173.389236 108.677019,186.350936 125.732175,186.350936 C142.786912,186.350936 154.156877,173.389236 154.156877,156.504937 C154.156877,139.620638 142.786912,126.658937 125.732175,126.658937 C108.677019,126.658937 97.3074736,139.620638 97.3074736,156.504937 Z M105.92069,156.504937 C105.92069,144.225409 113.845451,134.76 125.732175,134.76 C137.618899,134.76 145.543242,144.225409 145.543242,156.504937 C145.543242,168.784465 137.618899,178.249873 125.732175,178.249873 C113.845451,178.249873 105.92069,168.784465 105.92069,156.504937 Z M186.801083,186.350936 C188.265514,186.350936 190.07459,185.668764 190.763463,183.877694 L209.799391,133.566093 C211.952695,127.937854 203.769972,124.868286 201.702935,130.496107 L186.801083,171.683594 L171.899649,130.496107 C169.832612,124.868286 161.649889,127.937854 163.803193,133.566093 L182.83912,183.877694 C183.527993,185.668764 185.33707,186.350936 186.801083,186.350936 Z M250.713005,160.768412 C253.383487,160.768412 255.020031,158.892332 255.020031,156.504937 C255.020031,154.117123 253.383487,152.241043 250.713005,152.241043 L233.227774,152.241043 L233.227774,136.038917 L259.326639,136.038917 C261.997122,136.038917 263.633666,134.162838 263.633666,131.775442 C263.633666,129.387628 261.997122,127.511549 259.326639,127.511549 L228.920747,127.511549 C226.509064,127.511549 224.614139,129.131761 224.614139,131.775442 L224.614139,181.234431 C224.614139,183.877694 226.509064,185.497906 228.920747,185.497906 L229.265393,185.497906 L259.326639,185.497906 C261.997122,185.497906 263.633666,183.621827 263.633666,181.234431 C263.633666,178.846618 261.997122,176.970538 259.326639,176.970538 L233.227774,176.970538 L233.227774,160.768412 L250.713005,160.768412 Z M286.458605,127.511549 C284.046921,127.511549 282.151997,129.131761 282.151997,132.286758 L282.151997,181.234431 C282.151997,183.877694 284.046921,185.497906 286.458605,185.497906 C288.870288,185.497906 290.765213,183.877694 290.765213,181.234431 L290.765213,144.225409 L320.740611,183.366378 C321.77413,184.645295 323.066448,185.497906 324.875106,185.497906 C327.28679,185.497906 329.181714,183.877694 329.181714,180.722697 L329.181714,131.775442 C329.181714,129.131761 327.28679,127.511549 324.875106,127.511549 C322.463422,127.511549 320.568498,129.131761 320.568498,131.775442 L320.568498,168.869475 L290.593099,129.643496 C289.55958,128.36416 288.267682,127.511549 286.458605,127.511549 Z M356.141147,142.349329 C356.141147,137.914997 360.103528,134.76 365.443655,134.76 C370.181175,134.76 372.851657,136.550652 375.004961,139.791077 C377.847138,144.13998 384.910494,140.473249 382.326278,135.186306 C379.828328,129.984373 374.057289,126.658937 365.443655,126.658937 C354.935096,126.658937 347.527512,133.139788 347.527512,142.349329 C347.527512,163.412093 373.626796,157.527987 373.626796,170.660545 C373.626796,175.094458 369.664415,178.249873 364.324288,178.249873 C359.414236,178.249873 355.882767,175.691621 354.332489,171.769023 C352.351298,166.822957 344.857449,168.613608 346.149347,174.412285 C347.872158,181.916604 355.193894,186.350936 364.324288,186.350936 C375.090808,186.350936 382.240431,179.272923 382.240431,170.660545 C382.240431,150.024087 356.141147,156.334498 356.141147,142.349329 Z M400.84419,181.234431 C400.84419,183.877694 402.739533,185.497906 405.151217,185.497906 C407.562901,185.497906 409.457825,183.877694 409.457825,181.234431 L409.457825,161.195136 L431.680994,183.963122 C435.901336,188.312026 442.103287,182.513348 437.882526,178.164445 L416.951675,156.504937 L437.882526,134.84501 C442.103287,130.496107 435.901336,124.697429 431.680994,129.046751 L409.457825,151.814738 L409.457825,131.775442 C409.457825,129.131761 407.562901,127.511549 405.151217,127.511549 C402.739533,127.511549 400.84419,129.131761 400.84419,131.775442 L400.84419,181.234431 Z M450.285591,156.504937 C450.285591,173.389236 461.655555,186.350936 478.710293,186.350936 C495.76503,186.350936 507.134994,173.389236 507.134994,156.504937 C507.134994,139.620638 495.76503,126.658937 478.710293,126.658937 C461.655555,126.658937 450.285591,139.620638 450.285591,156.504937 Z M458.899226,156.504937 C458.899226,144.225409 466.823569,134.76 478.710293,134.76 C490.597016,134.76 498.521778,144.225409 498.521778,156.504937 C498.521778,168.784465 490.597016,178.249873 478.710293,178.249873 C466.823569,178.249873 458.899226,168.784465 458.899226,156.504937 Z" id="Fill-1"></path>
            <path d="M66.2867541,29.2986138 C66.8897798,28.4460026 67.3202731,27.2520956 67.3202731,26.1436172 C67.3202731,23.7558033 65.6837285,21.8797235 63.0136651,21.8797235 L30.023557,21.8797235 C27.3534935,21.8797235 25.716949,23.7558033 25.716949,26.1436172 C25.716949,28.5310124 27.3534935,30.4070921 30.023557,30.4070921 L55.0030559,30.4070921 L26.5783544,72.447191 C25.9753287,73.300221 25.5448354,74.494128 25.5448354,75.6026063 C25.5448354,77.9900015 27.18138,79.8660812 29.8514434,79.8660812 L62.8411327,79.8660812 C65.5116149,79.8660812 67.1481595,77.9900015 67.1481595,75.6026063 C67.1481595,73.2147924 65.5116149,71.3387126 62.8411327,71.3387126 L37.8620526,71.3387126 L66.2867541,29.2986138 Z M102.205305,21.0271123 C100.740874,21.0271123 98.9317975,21.7092851 98.1566583,23.6703746 L78.3455915,73.8119552 C76.1060214,79.4397756 84.2887441,82.5097623 86.4424668,76.8815232 L90.3185815,66.6485133 L114.09161,66.6485133 L117.967725,76.8815232 C120.121448,82.5097623 128.304171,79.4397756 126.0646,73.8119552 L106.253534,23.6703746 C105.478394,21.7092851 103.669318,21.0271123 102.205305,21.0271123 Z M102.205305,35.3531586 L110.991054,58.5478691 L93.3332909,58.5478691 L102.205305,35.3531586 Z M171.113127,36.717504 C171.113127,32.2831719 175.075508,29.1281753 180.416054,29.1281753 C185.153155,29.1281753 187.823637,30.9188264 189.976941,34.1592516 C192.819537,38.5081551 199.882475,34.8414243 197.298259,29.5544809 C194.800309,24.3525474 189.02927,21.0271123 180.416054,21.0271123 C169.907495,21.0271123 162.499492,27.5079627 162.499492,36.717504 C162.499492,57.7802678 188.598776,51.8961615 188.598776,65.0283007 C188.598776,69.4626329 184.636396,72.6180483 179.296269,72.6180483 C174.386216,72.6180483 170.854747,70.0597958 169.304469,66.1371979 C167.323279,61.1911315 159.829429,62.9817825 161.121328,68.7804602 C162.844138,76.2847791 170.165874,80.7191112 179.296269,80.7191112 C190.063207,80.7191112 197.212411,73.641098 197.212411,65.0283007 C197.212411,44.3922614 171.113127,50.7022545 171.113127,36.717504 Z M224.429805,26.1436172 C224.429805,23.4999361 222.534881,21.8797235 220.123197,21.8797235 C217.711513,21.8797235 215.816589,23.4999361 215.816589,26.1436172 L215.816589,75.6026063 C215.816589,78.2458686 217.711513,79.8660812 220.123197,79.8660812 L247.083468,79.8660812 C249.75395,79.8660812 251.390495,77.9900015 251.390495,75.6026063 C251.390495,73.2147924 249.75395,71.3387126 247.083468,71.3387126 L224.429805,71.3387126 L224.429805,26.1436172 Z M263.448076,58.7183076 C263.448076,71.8504469 271.889597,80.7191112 284.55146,80.7191112 C297.213323,80.7191112 305.654425,71.8504469 305.654425,58.7183076 L305.654425,26.1436172 C305.654425,23.4999361 303.759501,21.8797235 301.347817,21.8797235 C298.936134,21.8797235 297.040791,23.4999361 297.040791,26.1436172 L297.040791,58.7183076 C297.040791,67.1602476 292.475803,72.1917426 284.55146,72.1917426 C276.626698,72.1917426 272.06171,67.1602476 272.06171,58.7183076 L272.06171,26.1436172 C272.06171,23.4999361 270.166786,21.8797235 267.755102,21.8797235 C265.343,21.8797235 263.448076,23.4999361 263.448076,26.1436172 L263.448076,58.7183076 Z M332.613858,36.717504 C332.613858,32.2831719 336.576239,29.1281753 341.916366,29.1281753 C346.653886,29.1281753 349.32395,30.9188264 351.477672,34.1592516 C354.319849,38.5081551 361.383206,34.8414243 358.79899,29.5544809 C356.30104,24.3525474 350.530001,21.0271123 341.916366,21.0271123 C331.407807,21.0271123 324.000224,27.5079627 324.000224,36.717504 C324.000224,57.7802678 350.099508,51.8961615 350.099508,65.0283007 C350.099508,69.4626329 346.137127,72.6180483 340.796581,72.6180483 C335.886947,72.6180483 332.355479,70.0597958 330.8052,66.1371979 C328.82401,61.1911315 321.33016,62.9817825 322.622059,68.7804602 C324.344869,76.2847791 331.666187,80.7191112 340.796581,80.7191112 C351.56352,80.7191112 358.712724,73.641098 358.712724,65.0283007 C358.712724,44.3922614 332.613858,50.7022545 332.613858,36.717504 Z M330.718934,7.21280032 L338.987923,15.3988732 C339.763062,16.1664745 340.796581,16.7632186 341.916366,16.7632186 C343.036151,16.7632186 344.06967,16.1664745 344.845228,15.3988732 L353.114217,7.21280032 C356.990332,3.37521225 351.477672,-2.42346539 347.429025,1.58456117 L341.916366,7.04194306 L336.403707,1.58456117 C332.355479,-2.42346539 326.842819,3.37521225 330.718934,7.21280032 Z M381.623928,21.8797235 C379.211826,21.8797235 377.316902,23.4999361 377.316902,26.6549327 L377.316902,75.6026063 C377.316902,78.2458686 379.211826,79.8660812 381.623928,79.8660812 C384.035612,79.8660812 385.930536,78.2458686 385.930536,75.6026063 L385.930536,38.5935837 L415.905935,77.7345532 C416.939454,79.01347 418.231353,79.8660812 420.040429,79.8660812 C422.452113,79.8660812 424.347037,78.2458686 424.347037,75.0908721 L424.347037,26.1436172 C424.347037,23.4999361 422.452113,21.8797235 420.040429,21.8797235 C417.628327,21.8797235 415.733403,23.4999361 415.733403,26.1436172 L415.733403,63.2376497 L385.758423,24.0116704 C384.724904,22.7323348 383.432586,21.8797235 381.623928,21.8797235 Z M471.117537,55.1365867 C473.787601,55.1365867 475.424145,53.260507 475.424145,50.8731118 C475.424145,48.4852978 473.787601,46.6092181 471.117537,46.6092181 L453.631888,46.6092181 L453.631888,30.4070921 L479.731172,30.4070921 C482.401236,30.4070921 484.03778,28.5310124 484.03778,26.1436172 C484.03778,23.7558033 482.401236,21.8797235 479.731172,21.8797235 L449.32528,21.8797235 C446.913596,21.8797235 445.018672,23.4999361 445.018672,26.1436172 L445.018672,75.6026063 C445.018672,78.2458686 446.913596,79.8660812 449.32528,79.8660812 L479.731172,79.8660812 C482.401236,79.8660812 484.03778,77.9900015 484.03778,75.6026063 C484.03778,73.2147924 482.401236,71.3387126 479.731172,71.3387126 L453.631888,71.3387126 L453.631888,55.1365867 L471.117537,55.1365867 Z M476.285551,7.7241158 C480.678425,3.54565075 474.390626,-2.67933251 470.169866,1.66957103 L462.417636,9.60019552 C458.455674,13.6932319 464.140447,19.3214711 468.274942,15.3988732 L476.285551,7.7241158 Z" id="Fill-3"></path>
        </g>
    </g>
</svg>