<?xml version="1.0" encoding="utf-8"?>
<!-- Generator: Adobe Illustrator 14.0.0, SVG Export Plug-In . SVG Version: 6.00 Build 43363)  -->
<!DOCTYPE svg PUBLIC "-//W3C//DTD SVG 1.0//EN" "http://www.w3.org/TR/2001/REC-SVG-20010904/DTD/svg10.dtd">
<svg version="1.0" id="Layer_1" xmlns="http://www.w3.org/2000/svg" xmlns:xlink="http://www.w3.org/1999/xlink" x="0px" y="0px"
	 width="409.868px" height="208.588px" viewBox="0 61.443 409.868 208.588" enable-background="new 0 61.443 409.868 208.588"
	 xml:space="preserve">
<title>Artboard 1</title>
<path d="M390.576,72.34c0.592,1.945,1.237,3.943,1.793,5.945l-5.318,0.551c1.622-3.063,3.052-5.653,3.544-6.496 M395.227,88.084
	c1.119,3.584,3.262,12.422,9.323,12.213c3.239-0.112,5.376-1.586,5.317-3.606c-0.107-1.55-0.351-2.526-1.872-4.18
	c-1.08-2.401-2.37-6.447-3.074-8.513l-0.17-0.412c3.257-1.147,3.889-2.621,4.006-3.764c0.104-1.51-0.78-2.822-5.327-2.666
	l-0.896,0.031l-4.547-13.365c-1.306-2.857-5.377-2.352-5.893-2.334c-0.628,0-3.764,0.131-4.955,2.039
	c-0.099,0.055-0.512,0.277-2.15,2.77l-2.589,3.875c-3.083,4.615-4.603,7.615-10.529,17.674c-0.447,0.793-1.877,3.227-1.827,4.673
	c0.08,2.24,3.53,5.112,5.672,5.036c1.622-0.055,2.559-1.748,3.49-3.49L382.728,87c2.76-0.448,7.449-0.985,11.647-1.545
	L395.227,88.084z M335.376,96.752c0.099,2.899,2.925,5.91,9.825,5.668c4.547-0.157,12.499-1.793,12.248-8.961
	c-0.152-4.395-3.279-8.432-3.449-13.399c-0.116-3.261,1.062-5.533,3.584-5.618c1.309-0.045,2.164,0.547,3.996,0.484
	c2.353-0.086,2.899-2.383,2.836-4.145c-0.13-3.777-3.754-5.617-9.086-5.435c-9.148,0.323-12.096,6.125-11.827,13.526
	c0.251,7.142,3.308,10.814,3.396,13.301c0.054,1.551-1.094,1.693-2.034,1.729c-2.038,0.067-2.002-0.399-2.388-0.954
	c-0.552-0.758-1.496-0.933-2.491-0.896c-3.503,0.121-4.668,2.688-4.598,4.718 M291.622,92.014c0,0,0.031-0.678,0.054-1.452
	c5.757-1.497,10.949-2.715,10.814-6.601c-0.076-2.172-1.344-3.477-4.148-3.377c-0.63,0.026-1.258,0.102-1.877,0.224l-4.364,0.896
	c0-0.986,0.091-1.922,0.121-2.545c6.196-3.844,20.521-5.9,20.73-10.305c0.152-3.167-3.611-3.087-5.86-3.012
	c-3.625,0.23-7.229,0.721-10.784,1.466c-6.604,1.269-13.327,3.526-14.528,8.063c-0.896,3.297-1.269,8.696-1.305,12.174
	c0,0.152,0,2.021,0.041,2.688c0.232,6.622,3.63,13.916,11.522,13.639c2.559-0.09,12.567-2.822,12.433-6.654
	c-0.13-3.674-3.382-3.92-6.365-3.973l-1.883,0.066c-1.725,0.059-4.076,0.145-4.658,0L291.622,92.014z M261.972,89.773l0.969,6.72
	c0.491,3.562,1.044,8.875,7.267,8.66c3.028-0.107,3.875-1.38,3.781-4.121c-0.13-3.729-1.667-8.75-2.334-12.77
	c-0.727-4.377-1.438-15.807-8.288-15.569c-3.137,0.112-3.105,2.544-4.709,4.521l-4.222,5.076l-5.175,6.191l-2.173-3.809
	l-4.928-9.363c-1.291-2.441-5.22-4.117-7.733-4.032c-2.61,0.095-2.44,2.003-3.351,4.422c-0.524,1.416-4.929,12.19-5.351,13.14
	l-2.334,5.055c-1.461,3.136-1.461,4.664-1.442,5.179c0.144,4.14,3.585,6.456,6.241,6.362c3.396-0.116,4.306-4.086,5.937-8.288
	l2.746-6.886l1.103-2.885l6.747,11.891c0.999,1.621,3.253,1.751,5.031,1.689c1.255-0.045,2.661-0.197,3.168-0.785L261.972,89.773z
	 M188.8,89.737c-1.527-6.371-1.15-12.097-4.005-14.314c-1.559-1.191-4.618-1.961-6.608-1.896c-2.142,0.076-3.1,1.093-3.006,3.89
	c0.157,4.449,2.988,12.021,4.688,17.244c2.688,8.248,4.152,12.5,9.745,12.303c3.768-0.131,5.788-2.119,5.676-5.327
	c0-0.207-0.067-0.448-0.076-0.722c3.791-5.418,10.14-13.89,12.674-16.246c2.787-2.639,8.625-4.86,8.481-8.897
	c-0.121-3.521-4.597-4.247-7.11-4.313c-1.676-0.045-2.189,0.287-4.116,1.957c-5.744,4.929-11.789,11.762-16.088,17.474L188.8,89.737
	z M151.838,80.674c0.591,1.949,1.236,3.947,1.792,5.949l-5.318,0.551c1.617-3.063,3.047-5.653,3.539-6.5 M156.483,96.422
	c1.121,3.584,3.263,12.424,9.324,12.213c3.244-0.112,5.375-1.586,5.317-3.607c-0.108-1.55-0.351-2.527-1.873-4.186
	c-1.08-2.395-2.37-6.441-3.069-8.489l-0.174-0.412c3.256-1.147,3.889-2.621,4.004-3.764c0.104-1.511-0.779-2.822-5.326-2.666
	l-0.896,0.03l-4.561-13.363c-1.305-2.858-5.377-2.354-5.892-2.334c-0.627,0.021-3.764,0.13-4.95,2.039
	c-0.104,0.054-0.517,0.277-2.156,2.769l-2.584,3.875c-3.088,4.615-4.602,7.617-10.533,17.675c-0.448,0.793-1.877,3.227-1.823,4.674
	c0.076,2.24,3.526,5.111,5.672,5.035c1.617-0.058,2.554-1.746,3.486-3.49l3.521-7.064c2.76-0.447,7.451-0.984,11.648-1.55
	L156.483,96.422z M126.019,75.051c-1.778-0.084-3.56-0.075-5.336,0.027c-2.822,0.098-5.906,0.26-7.685,0.322l-5.019,0.176
	c-1.519,0.053-7.105,0.348-8.101,0.447c-3.024,0.26-3.669,1.268-3.606,3.029c0.161,4.654,5.081,6.195,9.162,6.102l-0.336,2.396
	l-0.752,5.197c-0.417,3.074-1.5,7.979-1.412,10.569c0.13,3.728,2.96,6.788,6.412,6.667c3.028-0.107,4.479-1.814,4.637-3.531
	c-0.146-0.609-0.219-1.232-0.221-1.859c-0.033-1.057,0.017-2.113,0.148-3.162c0.744-5.779,1.08-8.123,2.396-16.823l6.689-0.336
	c3.029-0.157,8.992-0.261,8.866-3.935c-0.095-2.643-2.948-4.928-5.892-5.287 M63.699,106.243c0.103,2.899,2.93,5.91,9.83,5.668
	c4.547-0.162,12.5-1.793,12.245-8.961c-0.152-4.398-3.275-8.436-3.45-13.404c-0.112-3.258,1.062-5.529,3.584-5.619
	c1.304-0.045,2.164,0.547,3.992,0.484c2.352-0.08,2.899-2.379,2.841-4.14c-0.135-3.776-3.755-5.623-9.091-5.435
	c-9.144,0.318-12.096,6.121-11.828,13.521c0.251,7.143,3.311,10.82,3.396,13.303c0.054,1.555-1.089,1.697-2.029,1.729
	c-2.043,0.072-2.007-0.395-2.393-0.954c-0.547-0.757-1.497-0.933-2.491-0.896c-3.499,0.121-4.668,2.688-4.597,4.721 M41.369,97.506
	c-0.112-3.209,0.591-8.514,2.8-12.688c0.202-0.166,1.071-0.815,1.64,0.448c0.627,1.482,0.752,5.156,0.757,5.26
	c0.179,5.125-0.569,7.617-3.772,10.395c-0.255,0.111-0.448,0.17-0.686-0.185c-0.556-0.864-0.712-2.409-0.739-3.239 M31.114,97.596
	c0.224,6.52,3.647,14.539,11.277,14.27c10.269-1.289,14.691-13.986,14.399-22.369c-0.179-5.176-2.187-10.082-7.76-12.425
	c-2.114-0.897-4.397-1.329-6.693-1.268c-3.083,0.108-5.977,1.245-7.666,3.844C32.485,82.986,30.89,91.18,31.114,97.596
	 M10.975,85.947c0.896,0.386,1.604,0.981,1.631,1.792c0.063,1.707-0.945,2.881-2.276,3.76c0.197-1.927,0.394-3.799,0.645-5.569
	 M0.223,105.642c0.426,3.136,2.119,8.217,6.72,8.063c2.039-0.07,3.934-1.174,3.84-3.916c-0.054-1.549-0.735-3.033-0.869-6.961
	l-0.045-1.192c5.246-2.688,14.005-8.104,13.781-14.574c-0.273-7.817-13.306-10.833-17.594-10.681
	c-1.671,0.058-2.545,0.551-3.002,0.932c-0.972,0.604-1.344,1.756-1.563,3.217c-0.162,1.299-0.484,4.162-0.896,8.477
	c-0.193,2.08-0.238,2.24-0.395,5.197c-0.157,2.957-0.255,6.174-0.166,8.76c0.036,1.035,0.116,1.912,0.197,2.688"/>
<path d="M358.037,247.819c0-9.133,5.891-16.17,14.73-16.17c8.839,0,14.73,7.037,14.73,16.17c0,9.131-5.892,16.168-14.73,16.168
	C363.928,263.987,358.037,256.95,358.037,247.819 M351.63,247.819c0,12.543,8.454,22.193,21.138,22.193
	c12.685,0,21.139-9.637,21.139-22.193c0-12.561-8.454-22.195-21.139-22.195C360.084,225.624,351.63,235.264,351.63,247.819
	 M314.865,266.188c0.002,1.77,1.438,3.201,3.207,3.197c1.767-0.002,3.197-1.432,3.199-3.197v-14.879l16.522,16.912
	c3.136,3.234,7.751-1.08,4.61-4.314l-15.563-16.107l15.564-16.129c3.136-3.234-1.47-7.543-4.61-4.309l-16.522,16.93v-14.859
	c-0.002-1.77-1.438-3.201-3.207-3.199c-1.767,0.002-3.197,1.434-3.199,3.199L314.865,266.188L314.865,266.188z M281.622,237.307
	c0-3.297,2.947-5.645,6.917-5.645c3.526,0,5.511,1.344,7.11,3.74c2.113,3.234,7.364,0.506,5.442-3.422
	c-1.922-3.932-6.146-6.346-12.545-6.346c-7.812,0-13.318,4.82-13.318,11.672c0,15.682,19.403,11.285,19.403,21.057
	c0,3.299-2.943,5.641-6.918,5.641c-3.65,0-6.271-1.898-7.428-4.814c-1.476-3.68-7.048-2.35-6.085,1.963
	c1.281,5.582,6.721,8.879,13.513,8.879c8.006,0,13.324-5.266,13.324-11.648c0-15.344-19.408-10.652-19.408-21.057 M229.794,226.258
	c-1.792,0-3.198,1.207-3.198,3.555v36.396c0.066,1.768,1.554,3.146,3.321,3.082c1.675-0.064,3.019-1.406,3.081-3.082v-27.521
	l22.289,29.121c0.714,0.988,1.857,1.576,3.078,1.582c1.792,0,3.203-1.201,3.203-3.549v-36.41c-0.003-1.77-1.438-3.201-3.208-3.199
	c-1.767,0.002-3.196,1.434-3.199,3.199v27.588l-22.289-29.164c-0.712-0.992-1.856-1.582-3.078-1.588 M203.213,250.999
	c1.75,0.066,3.224-1.299,3.289-3.051c0.066-1.75-1.3-3.223-3.051-3.289c-0.079-0.002-0.159-0.002-0.238,0H190.22v-12.051h19.413
	c1.75,0.064,3.224-1.301,3.288-3.053c0.066-1.75-1.3-3.223-3.05-3.287c-0.08-0.004-0.159-0.004-0.238,0h-22.616
	c-1.679-0.09-3.109,1.199-3.199,2.879c-0.004,0.098-0.004,0.193,0,0.293v36.777c-0.074,1.676,1.224,3.096,2.899,3.17
	c0.099,0.004,0.199,0.004,0.298-0.002h22.617c1.75,0.064,3.224-1.301,3.288-3.051c0.066-1.75-1.3-3.223-3.051-3.289
	c-0.079-0.004-0.158-0.004-0.237,0H190.22v-12.055L203.213,250.999z M155.7,270.012c1.268,0.059,2.438-0.672,2.943-1.836
	l14.158-37.414c1.6-4.186-4.48-6.471-6.021-2.285L155.7,259.11l-11.084-30.633c-1.537-4.186-7.616-1.898-6.021,2.285l14.141,37.414
	c0.508,1.162,1.68,1.895,2.947,1.836 M95.553,247.819c0-9.133,5.896-16.17,14.731-16.17s14.734,7.037,14.734,16.17
	c0,9.131-5.887,16.168-14.734,16.168C101.436,263.987,95.553,256.95,95.553,247.819 M89.151,247.819
	c0,12.543,8.454,22.193,21.133,22.193c12.679,0,21.138-9.637,21.138-22.193c0-12.561-8.454-22.195-21.138-22.195
	C97.6,225.624,89.151,235.264,89.151,247.819 M63.976,229.45c-0.066-1.77-1.553-3.148-3.321-3.082
	c-1.675,0.062-3.019,1.406-3.082,3.082v36.777c-0.074,1.676,1.224,3.096,2.9,3.17c0.099,0.004,0.199,0.004,0.298-0.004H80.82
	c1.75,0.066,3.223-1.299,3.289-3.051c0.066-1.75-1.3-3.223-3.051-3.287c-0.079-0.004-0.159-0.004-0.238,0H63.974V229.45H63.976z
	 M24.331,237.307c0-3.297,2.948-5.645,6.917-5.645c3.521,0,5.506,1.344,7.11,3.74c2.115,3.234,7.366,0.506,5.443-3.422
	c-1.922-3.932-6.146-6.346-12.544-6.346c-7.813,0-13.324,4.82-13.324,11.672c0,15.682,19.408,11.285,19.408,21.057
	c0,3.299-2.948,5.641-6.917,5.641c-3.651,0-6.272-1.898-7.428-4.814c-1.474-3.68-7.047-2.35-6.088,1.963
	c1.281,5.582,6.72,8.879,13.517,8.879c8.006,0,13.324-5.266,13.324-11.648c0-15.344-19.408-10.652-19.408-21.057"/>
<path d="M370.977,137.25c3.266-3.105-1.411-7.733-4.549-4.48l-5.766,5.896c-2.948,3.041,1.281,7.227,4.354,4.31L370.977,137.25z
	 M367.132,172.51c1.75,0.066,3.224-1.301,3.289-3.051s-1.3-3.223-3.051-3.289c-0.08-0.002-0.159-0.002-0.238,0h-12.993V154.12
	h19.408c1.751,0.065,3.225-1.301,3.289-3.052c0.066-1.75-1.3-3.223-3.051-3.289c-0.079-0.003-0.158-0.003-0.238,0h-22.611
	c-1.682-0.088-3.114,1.203-3.202,2.884c-0.005,0.096-0.006,0.192-0.001,0.289v36.779c-0.069,1.68,1.236,3.1,2.919,3.168
	c0.095,0.004,0.188,0.004,0.284-0.002h22.61c1.751,0.066,3.225-1.301,3.289-3.051c0.066-1.75-1.3-3.223-3.051-3.289
	c-0.079-0.002-0.158-0.002-0.238,0h-19.408V172.51H367.132z M300.582,147.779c-1.792,0-3.203,1.206-3.203,3.554v36.398
	c0.002,1.768,1.438,3.199,3.207,3.197c1.768-0.002,3.197-1.434,3.199-3.197v-27.523l22.289,29.121
	c0.712,0.99,1.854,1.578,3.074,1.582c1.792,0,3.203-1.205,3.203-3.549v-36.41c-0.003-1.77-1.438-3.201-3.208-3.199
	c-1.767,0.002-3.196,1.434-3.199,3.199v27.58l-22.289-29.166C302.946,148.374,301.802,147.782,300.582,147.779 M262.729,136.874
	l6.146,6.084c1.01,1.205,2.805,1.361,4.009,0.353c0.127-0.106,0.244-0.224,0.352-0.353l6.146-6.084
	c2.881-2.854-1.219-7.168-4.229-4.188l-4.101,4.06l-4.1-4.06C263.947,129.706,259.848,134.029,262.729,136.874 M264.136,158.827
	c0-3.297,2.947-5.645,6.917-5.645c3.526,0,5.512,1.344,7.11,3.74c2.114,3.236,7.365,0.507,5.448-3.422
	c-1.918-3.93-6.151-6.344-12.545-6.344c-7.813,0-13.32,4.82-13.32,11.67c0,15.682,19.409,11.286,19.409,21.059
	c0,3.297-2.948,5.641-6.918,5.641c-3.651,0-6.272-1.9-7.434-4.816c-1.474-3.678-7.043-2.348-6.084,1.963
	c1.281,5.582,6.721,8.879,13.518,8.879c8.006,0,13.318-5.264,13.318-11.646c0-15.346-19.407-10.654-19.407-21.058 M212.716,175.202
	c0,9.768,6.272,16.363,15.682,16.363c9.408,0,15.681-6.596,15.681-16.363v-24.25c-0.002-1.771-1.438-3.203-3.207-3.199
	c-1.767,0.002-3.197,1.433-3.199,3.199v24.219c0,6.273-3.396,10.023-9.288,10.023c-5.892,0-9.287-3.742-9.287-10.023v-24.219
	c-0.003-1.771-1.438-3.203-3.208-3.199c-1.766,0.002-3.195,1.433-3.198,3.199L212.716,175.202z M183.702,150.982
	c-0.066-1.769-1.553-3.147-3.321-3.082c-1.675,0.063-3.019,1.406-3.082,3.082v36.778c-0.071,1.68,1.231,3.098,2.91,3.168
	c0.097,0.004,0.192,0.004,0.29-0.002h20.049c1.75,0.066,3.223-1.299,3.289-3.049c0.066-1.752-1.3-3.225-3.051-3.289
	c-0.079-0.004-0.159-0.004-0.238,0h-16.846V150.982z M144.042,158.813c0-3.297,2.948-5.645,6.917-5.645
	c3.521,0,5.506,1.344,7.11,3.74c2.115,3.235,7.365,0.506,5.443-3.423c-1.923-3.929-6.146-6.344-12.545-6.344
	c-7.812,0-13.324,4.821-13.324,11.671c0,15.682,19.408,11.286,19.408,21.059c0,3.297-2.947,5.641-6.916,5.641
	c-3.652,0-6.272-1.9-7.429-4.816c-1.474-3.68-7.047-2.348-6.088,1.963c1.28,5.582,6.72,8.879,13.517,8.879
	c8.006,0,13.324-5.264,13.324-11.648c0-15.344-19.408-10.653-19.408-21.057 M92.811,157.814l6.523,17.218H86.203L92.811,157.814z
	 M92.811,147.161c-1.317-0.041-2.52,0.744-3.011,1.967l-14.731,37.289c-1.667,4.186,4.417,6.467,6.017,2.281l2.885-7.617h17.688
	l2.881,7.617c1.6,4.186,7.688,1.902,6.021-2.281L95.834,149.11c-0.491-1.223-1.694-2.009-3.011-1.967 M66.113,153.293
	c0.482-0.688,0.75-1.502,0.771-2.342c0.074-1.68-1.227-3.101-2.905-3.175c-0.1-0.004-0.199-0.004-0.299,0.001H39.124
	c-1.75-0.066-3.223,1.301-3.289,3.051c-0.066,1.752,1.3,3.223,3.051,3.289c0.08,0.004,0.159,0.004,0.238,0h18.575l-21.138,31.264
	c-0.48,0.689-0.747,1.506-0.766,2.348c-0.072,1.68,1.231,3.098,2.909,3.17c0.098,0.004,0.196,0.004,0.294-0.002h24.529
	c1.75,0.064,3.223-1.301,3.289-3.053c0.066-1.75-1.3-3.223-3.05-3.287c-0.08-0.004-0.159-0.004-0.239,0H44.952L66.113,153.293z"/>
</svg>
